<svg width="46" height="46" viewBox="0 0 46 46" fill="none" xmlns="http://www.w3.org/2000/svg">
<path d="M13.4167 32.6083L21.8749 32.5795L40.3363 14.2945C41.0608 13.57 41.4594 12.6079 41.4594 11.5844C41.4594 10.5609 41.0608 9.59868 40.3363 8.87418L37.2964 5.83435C35.8474 4.38535 33.3193 4.39302 31.8818 5.8286L13.4167 24.1174V32.6083ZM34.5863 8.54452L37.6318 11.5786L34.5709 14.6108L31.5311 11.5729L34.5863 8.54452ZM17.25 25.7159L28.8075 14.2677L31.8473 17.3075L20.2918 28.7519L17.25 28.7615V25.7159Z" fill="black"/>
<path d="M9.58333 40.25H36.4167C38.5308 40.25 40.25 38.5308 40.25 36.4167V19.803L36.4167 23.6363V36.4167H15.6362C15.5863 36.4167 15.5346 36.4358 15.4848 36.4358C15.4215 36.4358 15.3582 36.4186 15.2931 36.4167H9.58333V9.58333H22.7067L26.5401 5.75H9.58333C7.46925 5.75 5.75 7.46925 5.75 9.58333V36.4167C5.75 38.5308 7.46925 40.25 9.58333 40.25Z" fill="black"/>
</svg>
