<svg width="50" height="50" viewBox="0 0 50 50" fill="none" xmlns="http://www.w3.org/2000/svg">
<path d="M9.17857 8C6.88732 8 5 9.897 5 12.2V31.8C5 34.103 6.88732 36 9.17857 36H39.8214C42.1127 36 44 34.103 44 31.8V12.2C44 9.897 42.1127 8 39.8214 8H9.17857ZM9.17857 10.8H39.8214C40.6098 10.8 41.2143 11.4076 41.2143 12.2V31.8C41.2143 32.5924 40.6098 33.2 39.8214 33.2H9.17857C8.39021 33.2 7.78571 32.5924 7.78571 31.8V12.2C7.78571 11.4076 8.39021 10.8 9.17857 10.8ZM17.5357 13.6C14.4714 13.6 11.9643 16.12 11.9643 19.2C11.9643 20.7582 12.6287 22.1638 13.6622 23.1816C12.7141 23.8247 11.9368 24.691 11.3981 25.7051C10.8594 26.7192 10.5756 27.8504 10.5714 29H13.3571C13.3571 26.6648 15.2124 24.8 17.5357 24.8C19.859 24.8 21.7143 26.6648 21.7143 29H24.5C24.4958 27.8504 24.212 26.7192 23.6733 25.7051C23.1346 24.691 22.3573 23.8247 21.4093 23.1816C22.4428 22.1638 23.1071 20.7596 23.1071 19.2C23.1071 16.12 20.6 13.6 17.5357 13.6ZM27.2857 15V17.8H38.4286V15H27.2857ZM17.5357 16.4C19.0915 16.4 20.3214 17.6362 20.3214 19.2C20.3214 20.7638 19.0915 22 17.5357 22C15.9799 22 14.75 20.7638 14.75 19.2C14.75 17.6362 15.9799 16.4 17.5357 16.4ZM27.2857 20.6V23.4H38.4286V20.6H27.2857ZM27.2857 26.2V29H34.25V26.2H27.2857Z" fill="black"/>
</svg>
