<svg width="50" height="50" viewBox="0 0 50 50" fill="none" xmlns="http://www.w3.org/2000/svg">
<path d="M23.4375 35.9375V37.5C23.4375 37.9144 23.2729 38.3118 22.9799 38.6049C22.6868 38.8979 22.2894 39.0625 21.875 39.0625H18.75V40.625C18.75 41.4538 18.4208 42.2487 17.8347 42.8347C17.2487 43.4208 16.4538 43.75 15.625 43.75H9.375C8.5462 43.75 7.75134 43.4208 7.16529 42.8347C6.57924 42.2487 6.25 41.4538 6.25 40.625V36.5844C6.25018 35.7556 6.57953 34.9609 7.16562 34.375L19.2594 22.2813C18.5178 19.7632 18.5878 17.0757 19.4593 14.5997C20.3309 12.1236 21.9598 9.98483 24.1151 8.48649C26.2703 6.98815 28.8426 6.20633 31.4672 6.25188C34.0917 6.29744 36.6353 7.16806 38.7373 8.7403C40.8393 10.3125 42.3929 12.5066 43.178 15.0114C43.9631 17.5162 43.9398 20.2045 43.1113 22.6953C42.2828 25.186 40.6912 27.3528 38.5622 28.8883C36.4333 30.4237 33.8749 31.25 31.25 31.25H28.1219V34.375C28.1219 34.7894 27.9573 35.1868 27.6642 35.4799C27.3712 35.7729 26.9738 35.9375 26.5594 35.9375H23.4344H23.4375ZM34.375 18.75C35.2038 18.75 35.9987 18.4208 36.5847 17.8347C37.1708 17.2487 37.5 16.4538 37.5 15.625C37.5 14.7962 37.1708 14.0013 36.5847 13.4153C35.9987 12.8292 35.2038 12.5 34.375 12.5C33.5462 12.5 32.7513 12.8292 32.1653 13.4153C31.5792 14.0013 31.25 14.7962 31.25 15.625C31.25 16.4538 31.5792 17.2487 32.1653 17.8347C32.7513 18.4208 33.5462 18.75 34.375 18.75V18.75Z" fill="#F8F8F8"/>
</svg>
