<svg width="46" height="46" viewBox="0 0 46 46" fill="none" xmlns="http://www.w3.org/2000/svg">
<path d="M18.2084 12.4583V18.2083H12.4584V12.4583H18.2084ZM21.0834 9.58333H9.58337V21.0833H21.0834V9.58333ZM18.2084 27.7917V33.5417H12.4584V27.7917H18.2084ZM21.0834 24.9167H9.58337V36.4167H21.0834V24.9167ZM33.5417 12.4583V18.2083H27.7917V12.4583H33.5417ZM36.4167 9.58333H24.9167V21.0833H36.4167V9.58333ZM24.9167 24.9167H27.7917V27.7917H24.9167V24.9167ZM27.7917 27.7917H30.6667V30.6667H27.7917V27.7917ZM30.6667 24.9167H33.5417V27.7917H30.6667V24.9167ZM24.9167 30.6667H27.7917V33.5417H24.9167V30.6667ZM27.7917 33.5417H30.6667V36.4167H27.7917V33.5417ZM30.6667 30.6667H33.5417V33.5417H30.6667V30.6667ZM33.5417 27.7917H36.4167V30.6667H33.5417V27.7917ZM33.5417 33.5417H36.4167V36.4167H33.5417V33.5417ZM42.1667 13.4167H38.3334V7.66666H32.5834V3.83333H42.1667V13.4167ZM42.1667 42.1667V32.5833H38.3334V38.3333H32.5834V42.1667H42.1667ZM3.83337 42.1667H13.4167V38.3333H7.66671V32.5833H3.83337V42.1667ZM3.83337 3.83333V13.4167H7.66671V7.66666H13.4167V3.83333H3.83337Z" fill="black"/>
</svg>
